<svg xmlns="http://www.w3.org/2000/svg" id="Layer_1" width="512" height="512" data-name="Layer 1" viewBox="0 0 512 512"><title>Announcement share video play</title><path d="M411.62,16a84.375,84.375,0,1,1-84.37,84.38A84.382,84.382,0,0,1,411.62,16Zm48.9,51.44a16.435,16.435,0,1,0-16.43,16.44A16.429,16.429,0,0,0,460.52,67.44Zm0,65.87a16.435,16.435,0,1,0-16.43,16.43A16.431,16.431,0,0,0,460.52,133.31ZM395.6,100.38a16.435,16.435,0,1,0-16.44,16.43A16.439,16.439,0,0,0,395.6,100.38Z" style="fill:#f8ec7d"/><path d="M411.62,327.25a84.375,84.375,0,1,1-84.37,84.37A84.38,84.38,0,0,1,411.62,327.25ZM396.43,442.02l49.14-30.4-49.14-30.39Z" style="fill:#e48e66"/><path d="M444.09,51.01a16.435,16.435,0,1,1-16.44,16.43A16.429,16.429,0,0,1,444.09,51.01Z" style="fill:#6fe3ff"/><path d="M444.09,116.87a16.435,16.435,0,1,1-16.44,16.44A16.431,16.431,0,0,1,444.09,116.87Z" style="fill:#6fe3ff"/><polygon points="445.57 411.62 396.43 442.02 396.43 381.23 445.57 411.62" style="fill:#f8ec7d"/><path d="M379.16,83.94a16.435,16.435,0,1,1-16.43,16.44A16.439,16.439,0,0,1,379.16,83.94Z" style="fill:#6fe3ff"/><path d="M217.27,228.22l54.12,54.12,47.38,47.38-98.51,35.83a240.818,240.818,0,0,0-53.46,27.4q-8,5.43-15.55,11.52L96.13,349.35l-1.07-.87a239.8,239.8,0,0,0,15.74-21.91,241.968,241.968,0,0,0,23.27-47.21l35.82-98.52Z" style="fill:#e48e66"/><path d="M270.72,228.89a38.28,38.28,0,0,1,.67,53.45l-54.12-54.12A38.27,38.27,0,0,1,270.72,228.89Z" style="fill:#f8ec7d"/><path d="M151.25,404.47q7.545-6.09,15.55-11.52l30.16,30.16a38.289,38.289,0,0,1,0,54.14L136.8,417.09Q143.79,410.475,151.25,404.47Z" style="fill:#6fe3ff"/><path d="M100.38,16A84.375,84.375,0,1,1,16,100.38,84.38,84.38,0,0,1,100.38,16Zm46.87,110.07V74.68L116.44,91.59V80.49a10,10,0,0,0-10-10H63.5a10,10,0,0,0-10,10v39.77a10,10,0,0,0,10,10h42.94a10,10,0,0,0,10-10V109.22h.09Z" style="fill:#e48e66"/><path d="M136.8,417.09c-1.62,1.53-3.23,3.09-4.81,4.67a19.145,19.145,0,0,1-27.06,0L77.86,394.69a19.133,19.133,0,0,1,0-27.07,241.4,241.4,0,0,0,17.2-19.14l1.07.87,55.12,55.12Q143.8,410.47,136.8,417.09Z" style="fill:#f8ec7d"/><polygon points="147.25 74.68 147.25 126.07 116.53 109.22 116.44 109.22 116.44 91.59 147.25 74.68" style="fill:#6fe3ff"/><path d="M116.44,109.22v11.04a10,10,0,0,1-10,10H63.5a10,10,0,0,1-10-10V80.49a10,10,0,0,1,10-10h42.94a10,10,0,0,1,10,10v28.73Z" style="fill:#f8ec7d"/><path d="M320.821,335.359a6,6,0,0,0,2.192-9.881l-43.519-43.52a44.277,44.277,0,0,0-61.842-61.841L174.133,176.6a6,6,0,0,0-9.882,2.193l-35.82,98.519a236.254,236.254,0,0,1-22.693,46.04,234.919,234.919,0,0,1-15.346,21.362l0,0a236.405,236.405,0,0,1-16.77,18.662,25.133,25.133,0,0,0,0,35.558L100.681,426a25.145,25.145,0,0,0,35.551.006c.163-.162.337-.331.5-.494l55.983,55.984a6,6,0,0,0,8.483,0,44.291,44.291,0,0,0,0-62.629l-24.96-24.959a235.223,235.223,0,0,1,46.068-22.72ZM266.477,233.133a32.52,32.52,0,0,1,4.38,40.189L226.29,228.754A32.518,32.518,0,0,1,266.477,233.133ZM118.46,421.36a13.017,13.017,0,0,1-9.287-3.843L82.1,390.447a13.131,13.131,0,0,1,0-18.584c4.66-4.661,9.17-9.551,13.462-14.592l46.79,46.789c-3.295,2.805-6.538,5.7-9.675,8.668-1.709,1.615-3.369,3.226-4.939,4.8A13.012,13.012,0,0,1,118.46,421.36Zm83.71,28.82a32.052,32.052,0,0,1-5.6,18.195l-51.1-51.1c3.121-2.8,6.312-5.528,9.55-8.134,3.575-2.886,7.29-5.7,11.087-8.4l26.614,26.613A32.038,32.038,0,0,1,202.17,450.18Zm-38.741-62.194c-3.982,2.7-7.9,5.546-11.7,8.475l-48.575-48.576c4.5-5.836,8.766-11.895,12.711-18.093a248.386,248.386,0,0,0,23.847-48.382l32.6-89.665L307.866,327.3,218.21,359.911A247.046,247.046,0,0,0,163.429,387.986Z" style="fill:#63316d"/><path d="M308.981,203.5a65.1,65.1,0,0,0-70.465-14.372A6,6,0,1,0,243,200.255a53.19,53.19,0,0,1,69.211,69.223,6,6,0,1,0,11.13,4.485A65.089,65.089,0,0,0,308.981,203.5Z" style="fill:#63316d"/><path d="M344.738,288.435a5.992,5.992,0,0,0,7.807-3.322A96.2,96.2,0,0,0,227.356,159.936a6,6,0,1,0,4.488,11.128A84.2,84.2,0,0,1,341.415,280.627,6,6,0,0,0,344.738,288.435Z" style="fill:#63316d"/><path d="M411.62,10A90.375,90.375,0,1,0,502,100.38,90.477,90.477,0,0,0,411.62,10Zm0,168.75A78.375,78.375,0,1,1,490,100.38,78.459,78.459,0,0,1,411.62,178.75Z" style="fill:#63316d"/><path d="M444.09,89.88a22.435,22.435,0,1,0-22.438-22.528L393.827,83.418a22.432,22.432,0,1,0-.573,34.4l28.523,17.873a22.458,22.458,0,1,0,2.381-12.67l-23.907-14.98a22.4,22.4,0,0,0,.241-14.614l24.535-14.167A22.441,22.441,0,0,0,444.09,89.88Zm0-32.87a10.435,10.435,0,1,1-10.44,10.43A10.442,10.442,0,0,1,444.09,57.01Zm-64.93,53.8a10.435,10.435,0,1,1,10.44-10.43A10.442,10.442,0,0,1,379.16,110.81Zm64.93,12.06a10.435,10.435,0,1,1-10.44,10.44A10.447,10.447,0,0,1,444.09,122.87Z" style="fill:#63316d"/><path d="M411.62,321.25A90.375,90.375,0,1,0,502,411.62,90.473,90.473,0,0,0,411.62,321.25Zm0,168.75A78.375,78.375,0,1,1,490,411.62,78.464,78.464,0,0,1,411.62,490Z" style="fill:#63316d"/><path d="M448.726,406.517l-49.14-30.39a6,6,0,0,0-9.156,5.1v60.79a6,6,0,0,0,9.156,5.1l49.141-30.4a6,6,0,0,0,0-10.206Zm-46.3,24.736V392l31.734,19.626Z" style="fill:#63316d"/><path d="M100.38,190.75A90.375,90.375,0,1,0,10,100.38,90.473,90.473,0,0,0,100.38,190.75Zm0-168.75A78.375,78.375,0,1,1,22,100.38,78.464,78.464,0,0,1,100.38,22Z" style="fill:#63316d"/><path d="M63.5,136.26h42.94a16.019,16.019,0,0,0,16-16v-.955l21.925,12.026a6,6,0,0,0,8.885-5.261V74.68a6,6,0,0,0-8.887-5.26L122.44,81.453V80.49a16.019,16.019,0,0,0-16-16H63.5a16.018,16.018,0,0,0-16,16v39.77A16.018,16.018,0,0,0,63.5,136.26Zm77.75-51.443v31.119l-18.81-10.318V95.141ZM59.5,80.49a4,4,0,0,1,4-4h42.94a4,4,0,0,1,4,4v39.77a4,4,0,0,1-4,4H63.5a4,4,0,0,1-4-4Z" style="fill:#63316d"/></svg>