<svg xmlns="http://www.w3.org/2000/svg" xmlns:xlink="http://www.w3.org/1999/xlink" width="512" height="512" overflow="hidden" version="1.1" viewBox="-3 0 511 512"><g><path fill="#FF4700" stroke="#000" stroke-dashoffset="1" stroke-opacity="1" stroke-width="1" d="M 492.363 384 L 12.6289 384 C 8.14063 384 4.5 380.414 4.5 376 L 4.5 360 C 4.5 355.586 8.14063 352 12.6289 352 L 492.363 352 C 496.852 352 500.492 355.586 500.492 360 L 500.492 376 C 500.5 380.414 496.852 384 492.363 384 Z"/><path fill="#263238" stroke="#000" stroke-dashoffset="1" stroke-opacity="1" stroke-width="1" d="M 492.363 388 L 12.6289 388 C 5.94141 388 0.5 382.617 0.5 376 L 0.5 360 C 0.5 353.383 5.94141 348 12.6367 348 L 492.371 348 C 499.059 348 504.508 353.383 504.508 360 L 504.508 376 C 504.5 382.617 499.051 388 492.363 388 Z M 12.6289 356 C 10.3477 356 8.5 357.793 8.5 360 L 8.5 376 C 8.5 378.207 10.3555 380 12.6367 380 L 492.371 380 C 494.652 380 496.508 378.207 496.508 376 L 496.508 360 C 496.508 357.793 494.652 356 492.371 356 Z"/><path fill="#263238" stroke="#000" stroke-dashoffset="1" stroke-opacity="1" stroke-width="1" d="M 56.5 512 C 54.2852 512 52.5 510.207 52.5 508 L 52.5 400 C 52.5 397.793 54.2852 396 56.5 396 C 58.7148 396 60.5 397.793 60.5 400 L 60.5 508 C 60.5 510.207 58.707 512 56.5 512 Z"/><path fill="#263238" stroke="#000" stroke-dashoffset="1" stroke-opacity="1" stroke-width="1" d="M 24.5 512 C 22.2852 512 20.5 510.207 20.5 508 L 20.5 400 C 20.5 397.793 22.2852 396 24.5 396 C 26.7148 396 28.5 397.793 28.5 400 L 28.5 508 C 28.5 510.207 26.707 512 24.5 512 Z"/><path fill="#263238" stroke="#000" stroke-dashoffset="1" stroke-opacity="1" stroke-width="1" d="M 152.5 512 C 150.293 512 148.5 510.207 148.5 508 L 148.5 468 C 148.5 465.793 150.293 464 152.5 464 C 154.707 464 156.5 465.793 156.5 468 L 156.5 508 C 156.5 510.207 154.707 512 152.5 512 Z"/><path fill="#263238" stroke="#000" stroke-dashoffset="1" stroke-opacity="1" stroke-width="1" d="M 128.5 512 C 126.293 512 124.5 510.207 124.5 508 L 124.5 468 C 124.5 465.793 126.293 464 128.5 464 C 130.707 464 132.5 465.793 132.5 468 L 132.5 508 C 132.5 510.207 130.707 512 128.5 512 Z"/><path fill="#263238" stroke="#000" stroke-dashoffset="1" stroke-opacity="1" stroke-width="1" d="M 480.5 512 C 478.293 512 476.5 510.207 476.5 508 L 476.5 400 C 476.5 397.793 478.293 396 480.5 396 C 482.707 396 484.5 397.793 484.5 400 L 484.5 508 C 484.5 510.207 482.707 512 480.5 512 Z"/><path fill="#263238" stroke="#000" stroke-dashoffset="1" stroke-opacity="1" stroke-width="1" d="M 448.5 512 C 446.293 512 444.5 510.207 444.5 508 L 444.5 400 C 444.5 397.793 446.293 396 448.5 396 C 450.707 396 452.5 397.793 452.5 400 L 452.5 508 C 452.5 510.207 450.707 512 448.5 512 Z"/><path fill="#FF8400" stroke="#000" stroke-dashoffset="1" stroke-opacity="1" stroke-width="1" d="M 180.5 452 L 100.5 452 C 96.0859 452 92.5 448.414 92.5 444 L 92.5 428 C 92.5 423.586 96.0859 420 100.5 420 L 180.5 420 C 184.914 420 188.5 423.586 188.5 428 L 188.5 444 C 188.5 448.414 184.914 452 180.5 452 Z"/><path fill="#263238" stroke="#000" stroke-dashoffset="1" stroke-opacity="1" stroke-width="1" d="M 180.5 456 L 100.5 456 C 93.8828 456 88.5 450.617 88.5 444 L 88.5 428 C 88.5 421.383 93.8828 416 100.5 416 L 180.5 416 C 187.117 416 192.5 421.383 192.5 428 L 192.5 444 C 192.5 450.617 187.117 456 180.5 456 Z M 100.5 424 C 98.293 424 96.5 425.793 96.5 428 L 96.5 444 C 96.5 446.207 98.293 448 100.5 448 L 180.5 448 C 182.707 448 184.5 446.207 184.5 444 L 184.5 428 C 184.5 425.793 182.707 424 180.5 424 Z"/><path fill="#263238" stroke="#000" stroke-dashoffset="1" stroke-opacity="1" stroke-width="1" d="M 376.5 512 C 374.293 512 372.5 510.207 372.5 508 L 372.5 468 C 372.5 465.793 374.293 464 376.5 464 C 378.707 464 380.5 465.793 380.5 468 L 380.5 508 C 380.5 510.207 378.707 512 376.5 512 Z"/><path fill="#263238" stroke="#000" stroke-dashoffset="1" stroke-opacity="1" stroke-width="1" d="M 352.5 512 C 350.293 512 348.5 510.207 348.5 508 L 348.5 468 C 348.5 465.793 350.293 464 352.5 464 C 354.707 464 356.5 465.793 356.5 468 L 356.5 508 C 356.5 510.207 354.707 512 352.5 512 Z"/><path fill="#FF8400" stroke="#000" stroke-dashoffset="1" stroke-opacity="1" stroke-width="1" d="M 404.5 452 L 324.5 452 C 320.086 452 316.5 448.414 316.5 444 L 316.5 428 C 316.5 423.586 320.086 420 324.5 420 L 404.5 420 C 408.914 420 412.5 423.586 412.5 428 L 412.5 444 C 412.5 448.414 408.914 452 404.5 452 Z"/><path fill="#263238" stroke="#000" stroke-dashoffset="1" stroke-opacity="1" stroke-width="1" d="M 404.5 456 L 324.5 456 C 317.883 456 312.5 450.617 312.5 444 L 312.5 428 C 312.5 421.383 317.883 416 324.5 416 L 404.5 416 C 411.117 416 416.5 421.383 416.5 428 L 416.5 444 C 416.5 450.617 411.117 456 404.5 456 Z M 324.5 424 C 322.293 424 320.5 425.793 320.5 428 L 320.5 444 C 320.5 446.207 322.293 448 324.5 448 L 404.5 448 C 406.707 448 408.5 446.207 408.5 444 L 408.5 428 C 408.5 425.793 406.707 424 404.5 424 Z"/><path fill="#0678AA" stroke="#000" stroke-dashoffset="1" stroke-opacity="1" stroke-width="1" d="M 196.5 158.336 L 84.5 158.336 L 140.5 94.3359 Z"/><path fill="#263238" stroke="#000" stroke-dashoffset="1" stroke-opacity="1" stroke-width="1" d="M 196.5 162.336 L 84.5 162.336 C 82.9336 162.336 81.5078 161.414 80.8594 159.992 C 80.2031 158.559 80.4609 156.887 81.4922 155.703 L 137.492 91.7031 C 139.012 89.9609 141.988 89.9609 143.516 91.7031 L 199.516 155.703 C 200.547 156.879 200.797 158.559 200.148 159.992 C 199.492 161.414 198.066 162.336 196.5 162.336 Z M 93.3164 154.336 L 187.684 154.336 L 140.5 100.406 Z"/><path fill="#37474F" stroke="#000" stroke-dashoffset="1" stroke-opacity="1" stroke-width="1" d="M 140.5 98.3359 C 138.293 98.3359 136.5 96.543 136.5 94.3359 L 136.5 33 C 136.5 30.793 138.293 29 140.5 29 C 142.707 29 144.5 30.793 144.5 33 L 144.5 94.3359 C 144.5 96.543 142.707 98.3359 140.5 98.3359 Z"/><path fill="#37474F" stroke="#000" stroke-dashoffset="1" stroke-opacity="1" stroke-width="1" d="M 140.5 178.336 C 129.477 178.336 120.5 169.359 120.5 158.336 C 120.5 156.129 122.293 154.336 124.5 154.336 L 156.5 154.336 C 158.707 154.336 160.5 156.129 160.5 158.336 C 160.5 169.359 151.523 178.336 140.5 178.336 Z M 129.18 162.336 C 130.836 166.992 135.285 170.336 140.5 170.336 C 145.715 170.336 150.164 166.992 151.82 162.336 Z"/><path fill="#0678AA" stroke="#000" stroke-dashoffset="1" stroke-opacity="1" stroke-width="1" d="M 420.5 158.336 L 308.5 158.336 L 364.5 94.3359 Z"/><path fill="#263238" stroke="#000" stroke-dashoffset="1" stroke-opacity="1" stroke-width="1" d="M 420.5 162.336 L 308.5 162.336 C 306.934 162.336 305.508 161.414 304.859 159.992 C 304.203 158.559 304.461 156.887 305.492 155.703 L 361.492 91.7031 C 363.012 89.9609 365.988 89.9609 367.516 91.7031 L 423.516 155.703 C 424.547 156.879 424.797 158.559 424.148 159.992 C 423.492 161.414 422.066 162.336 420.5 162.336 Z M 317.316 154.336 L 411.684 154.336 L 364.5 100.406 Z"/><path fill="#37474F" stroke="#000" stroke-dashoffset="1" stroke-opacity="1" stroke-width="1" d="M 364.5 98.3359 C 362.293 98.3359 360.5 96.543 360.5 94.3359 L 360.5 33 C 360.5 30.793 362.293 29 364.5 29 C 366.707 29 368.5 30.793 368.5 33 L 368.5 94.3359 C 368.5 96.543 366.707 98.3359 364.5 98.3359 Z"/><g fill="#263238"><path fill="#000" stroke="#000" stroke-dashoffset="1" stroke-opacity="1" stroke-width="1" d="M 364.5 178.336 C 353.477 178.336 344.5 169.359 344.5 158.336 C 344.5 156.129 346.293 154.336 348.5 154.336 L 380.5 154.336 C 382.707 154.336 384.5 156.129 384.5 158.336 C 384.5 169.359 375.523 178.336 364.5 178.336 Z M 353.18 162.336 C 354.836 166.992 359.285 170.336 364.5 170.336 C 369.715 170.336 374.164 166.992 375.82 162.336 Z"/><path fill="#000" stroke="#000" stroke-dashoffset="1" stroke-opacity="1" stroke-width="1" d="M 428.5 336 L 300.5 336 C 293.883 336 288.5 330.617 288.5 324 L 288.5 244 C 288.5 237.383 293.883 232 300.5 232 L 428.5 232 C 435.117 232 440.5 237.383 440.5 244 L 440.5 324 C 440.5 330.617 435.117 336 428.5 336 Z M 300.5 240 C 298.293 240 296.5 241.793 296.5 244 L 296.5 324 C 296.5 326.207 298.293 328 300.5 328 L 428.5 328 C 430.707 328 432.5 326.207 432.5 324 L 432.5 244 C 432.5 241.793 430.707 240 428.5 240 Z"/><path fill="#000" stroke="#000" stroke-dashoffset="1" stroke-opacity="1" stroke-width="1" d="M 444.5 356 L 284.5 356 C 277.883 356 272.5 350.617 272.5 344 L 272.5 340 C 272.5 333.383 277.883 328 284.5 328 L 444.5 328 C 451.117 328 456.5 333.383 456.5 340 L 456.5 344 C 456.5 350.617 451.117 356 444.5 356 Z M 284.5 336 C 282.293 336 280.5 337.793 280.5 340 L 280.5 344 C 280.5 346.207 282.293 348 284.5 348 L 444.5 348 C 446.707 348 448.5 346.207 448.5 344 L 448.5 340 C 448.5 337.793 446.707 336 444.5 336 Z"/><path fill="#000" stroke="#000" stroke-dashoffset="1" stroke-opacity="1" stroke-width="1" d="M 420.5 272 C 419.477 272 418.453 271.609 417.668 270.832 L 401.668 254.832 C 400.109 253.273 400.109 250.734 401.668 249.176 C 403.227 247.617 405.766 247.617 407.324 249.176 L 423.324 265.176 C 424.883 266.734 424.883 269.273 423.324 270.832 C 422.539 271.609 421.516 272 420.5 272 Z"/><path fill="#000" stroke="#000" stroke-dashoffset="1" stroke-opacity="1" stroke-width="1" d="M 420.5 296 C 419.477 296 418.453 295.609 417.668 294.832 L 377.668 254.832 C 376.109 253.273 376.109 250.734 377.668 249.176 C 379.227 247.617 381.766 247.617 383.324 249.176 L 423.324 289.176 C 424.883 290.734 424.883 293.273 423.324 294.832 C 422.539 295.609 421.516 296 420.5 296 Z"/><path fill="#000" stroke="#000" stroke-dashoffset="1" stroke-opacity="1" stroke-width="1" d="M 204.5 336 L 76.5 336 C 69.8828 336 64.5 330.617 64.5 324 L 64.5 244 C 64.5 237.383 69.8828 232 76.5 232 L 204.5 232 C 211.117 232 216.5 237.383 216.5 244 L 216.5 324 C 216.5 330.617 211.117 336 204.5 336 Z M 76.5 240 C 74.293 240 72.5 241.793 72.5 244 L 72.5 324 C 72.5 326.207 74.293 328 76.5 328 L 204.5 328 C 206.707 328 208.5 326.207 208.5 324 L 208.5 244 C 208.5 241.793 206.707 240 204.5 240 Z"/><path fill="#000" stroke="#000" stroke-dashoffset="1" stroke-opacity="1" stroke-width="1" d="M 220.5 356 L 60.5 356 C 53.8828 356 48.5 350.617 48.5 344 L 48.5 340 C 48.5 333.383 53.8828 328 60.5 328 L 220.5 328 C 227.117 328 232.5 333.383 232.5 340 L 232.5 344 C 232.5 350.617 227.117 356 220.5 356 Z M 60.5 336 C 58.293 336 56.5 337.793 56.5 340 L 56.5 344 C 56.5 346.207 58.293 348 60.5 348 L 220.5 348 C 222.707 348 224.5 346.207 224.5 344 L 224.5 340 C 224.5 337.793 222.707 336 220.5 336 Z"/><path fill="#000" stroke="#000" stroke-dashoffset="1" stroke-opacity="1" stroke-width="1" d="M 196.5 272 C 195.477 272 194.453 271.609 193.668 270.832 L 177.668 254.832 C 176.109 253.273 176.109 250.734 177.668 249.176 C 179.227 247.617 181.766 247.617 183.324 249.176 L 199.324 265.176 C 200.883 266.734 200.883 269.273 199.324 270.832 C 198.539 271.609 197.516 272 196.5 272 Z"/><path fill="#000" stroke="#000" stroke-dashoffset="1" stroke-opacity="1" stroke-width="1" d="M 196.5 296 C 195.477 296 194.453 295.609 193.668 294.832 L 153.668 254.832 C 152.109 253.273 152.109 250.734 153.668 249.176 C 155.227 247.617 157.766 247.617 159.324 249.176 L 199.324 289.176 C 200.883 290.734 200.883 293.273 199.324 294.832 C 198.539 295.609 197.516 296 196.5 296 Z"/><path fill="#000" stroke="#000" stroke-dashoffset="1" stroke-opacity="1" stroke-width="1" d="M 492.5 32 L 12.5 32 C 5.875 32 0.5 26.6172 0.5 20 L 0.5 12 C 0.5 5.38281 5.88281 0 12.5 0 L 492.5 0 C 499.117 0 504.5 5.38281 504.5 12 L 504.5 20 C 504.5 26.6172 499.117 32 492.5 32 Z M 12.5 8 C 10.293 8 8.5 9.79297 8.5 12 L 8.5 20 C 8.5 22.207 10.293 24 12.5 24 L 492.5 24 C 494.707 24 496.5 22.207 496.5 20 L 496.5 12 C 496.5 9.79297 494.707 8 492.5 8 Z"/><path fill="#000" stroke="#000" stroke-dashoffset="1" stroke-opacity="1" stroke-width="1" d="M 440.5 94.3359 C 438.293 94.3359 436.5 92.543 436.5 90.3359 L 436.5 58.3359 C 436.5 56.1289 438.293 54.3359 440.5 54.3359 C 442.707 54.3359 444.5 56.1289 444.5 58.3359 L 444.5 90.3359 C 444.5 92.543 442.707 94.3359 440.5 94.3359 Z"/><path fill="#000" stroke="#000" stroke-dashoffset="1" stroke-opacity="1" stroke-width="1" d="M 456.5 78.3359 L 424.5 78.3359 C 422.293 78.3359 420.5 76.543 420.5 74.3359 C 420.5 72.1289 422.293 70.3359 424.5 70.3359 L 456.5 70.3359 C 458.707 70.3359 460.5 72.1289 460.5 74.3359 C 460.5 76.543 458.707 78.3359 456.5 78.3359 Z"/><path fill="#000" stroke="#000" stroke-dashoffset="1" stroke-opacity="1" stroke-width="1" d="M 484.5 142.336 C 482.293 142.336 480.5 140.543 480.5 138.336 L 480.5 106.336 C 480.5 104.129 482.293 102.336 484.5 102.336 C 486.707 102.336 488.5 104.129 488.5 106.336 L 488.5 138.336 C 488.5 140.543 486.707 142.336 484.5 142.336 Z"/><path fill="#000" stroke="#000" stroke-dashoffset="1" stroke-opacity="1" stroke-width="1" d="M 500.5 126.336 L 468.5 126.336 C 466.293 126.336 464.5 124.543 464.5 122.336 C 464.5 120.129 466.293 118.336 468.5 118.336 L 500.5 118.336 C 502.707 118.336 504.5 120.129 504.5 122.336 C 504.5 124.543 502.707 126.336 500.5 126.336 Z"/></g></g></svg>