<svg xmlns="http://www.w3.org/2000/svg" xmlns:xlink="http://www.w3.org/1999/xlink" id="Capa_1" x="0" y="0" version="1.1" viewBox="0 0 480.024 480.024" xml:space="preserve" style="enable-background:new 0 0 480.024 480.024"><path style="fill:#ffede8" d="M455.2,189.624C445.243,79.616,347.992-1.49,237.985,8.468	C137.84,17.533,59.997,99.543,56.16,200.024l-0.16,8l-32,136h48v56h88v72h192v-79.336c0.059-5.696,3.094-10.946,8-13.84	C425.313,339.173,462.27,265.715,455.2,189.624z M131.552,83.576l11.312,11.312L131.552,83.576z M168,55.6l8,13.864L168,55.6z M210.448,38l4.144,15.448L210.448,38z M256,352.024c-8.837,0-16-7.163-16-16s7.163-16,16-16c8.837,0,16,7.163,16,16	S264.837,352.024,256,352.024z M264,288.024h-16l-16-192h48L264,288.024z M297.408,53.472l4.144-15.448L297.408,53.472z M336,69.472	l8-13.864L336,69.472z M369.136,94.896l11.312-11.312L369.136,94.896z"/><g><circle style="fill:#006df0" cx="256" cy="336.024" r="16"/><path style="fill:#006df0" d="M248,288.024h16l16-192h-48L248,288.024z"/></g><g><path style="fill:#231f20" d="M352,480.024H160c-4.418,0-8-3.582-8-8v-64H72c-4.418,0-8-3.582-8-8v-48H24 c-4.418,0.003-8.002-3.577-8.005-7.995c0-0.618,0.071-1.235,0.213-1.837L48,207.016l0.144-7.152 C52.604,85.11,149.246-4.3,263.999,0.16c2.451,0.095,4.9,0.234,7.345,0.416c101.144,7.961,181.987,87.367,191.76,188.352 c7.484,79.158-30.977,155.619-98.992,196.8c-2.527,1.434-4.108,4.095-4.16,7v79.296C359.952,476.423,356.4,479.997,352,480.024 L352,480.024z M168,464.024h176v-71.336c0.034-8.49,4.527-16.337,11.832-20.664c62.782-38.018,98.281-108.602,91.368-181.672 c-9.017-93.191-83.615-166.471-176.952-173.824C164.531,8.633,72.429,87.934,64.535,193.652c-0.166,2.226-0.294,4.454-0.382,6.684 L64,208.184c-0.018,0.563-0.087,1.122-0.208,1.672L34.104,336.024H72c4.418,0,8,3.582,8,8v48h80c4.418,0,8,3.582,8,8L168,464.024z"/><path style="fill:#231f20" d="M256,360.024c-13.255,0-24-10.745-24-24s10.745-24,24-24c13.255,0,24,10.745,24,24 S269.255,360.024,256,360.024z M256,328.024c-4.418,0-8,3.582-8,8s3.582,8,8,8c4.418,0,8-3.582,8-8S260.419,328.024,256,328.024z"/><path style="fill:#231f20" d="M256,56.024c-4.418,0-8-3.582-8-8v-16c0-4.418,3.582-8,8-8c4.418,0,8,3.582,8,8v16 C264,52.442,260.419,56.024,256,56.024z"/><path style="fill:#231f20" d="M297.424,61.48c-0.703,0.001-1.402-0.093-2.08-0.28c-4.264-1.144-6.796-5.526-5.656-9.792 l4.144-15.456c1.029-4.297,5.347-6.946,9.643-5.917c4.297,1.029,6.946,5.347,5.917,9.643c-0.034,0.14-0.071,0.279-0.112,0.417 l-4.136,15.448C304.21,59.041,301.044,61.475,297.424,61.48L297.424,61.48z"/><path style="fill:#231f20" d="M336,77.464c-4.418-0.005-7.996-3.59-7.992-8.008c0.001-1.402,0.371-2.778,1.072-3.992l8-13.864 c2.235-3.811,7.136-5.089,10.948-2.854c3.775,2.214,5.071,7.05,2.908,10.854l-8,13.864C341.506,75.941,338.861,77.466,336,77.464 L336,77.464z"/><path style="fill:#231f20" d="M369.144,102.88c-4.418-0.001-7.999-3.583-7.998-8.002c0-2.121,0.843-4.154,2.342-5.654 L374.8,77.912c3.178-3.069,8.242-2.982,11.312,0.196c2.994,3.1,2.994,8.015,0,11.116L374.8,100.536 C373.3,102.036,371.266,102.879,369.144,102.88z"/><path style="fill:#231f20" d="M214.576,61.48c-3.62-0.004-6.786-2.439-7.72-5.936l-4.136-15.448 c-1.26-4.235,1.152-8.689,5.387-9.949s8.689,1.152,9.949,5.387c0.041,0.138,0.078,0.277,0.112,0.417l4.144,15.456 c1.14,4.266-1.392,8.648-5.656,9.792C215.979,61.386,215.279,61.48,214.576,61.48L214.576,61.48z"/><path style="fill:#231f20" d="M176,77.464c-2.861,0.003-5.506-1.522-6.936-4l-8-13.864c-2.184-3.841-0.841-8.725,3-10.909 c3.805-2.163,8.642-0.867,10.856,2.909l8,13.864c2.209,3.826,0.898,8.719-2.928,10.928C178.778,77.093,177.402,77.462,176,77.464z"/><path style="fill:#231f20" d="M142.856,102.88c-2.122,0-4.156-0.844-5.656-2.344l-11.312-11.312 c-3.178-3.069-3.266-8.134-0.197-11.312c3.069-3.178,8.134-3.266,11.312-0.197c0.067,0.064,0.132,0.13,0.197,0.197l11.312,11.312 c3.124,3.125,3.123,8.19-0.002,11.314C147.011,102.037,144.977,102.879,142.856,102.88L142.856,102.88z"/><path style="fill:#231f20" d="M264,296.024h-16c-4.171,0.014-7.654-3.179-8-7.336l-16-192c-0.367-4.403,2.905-8.27,7.308-8.636 c0.23-0.019,0.461-0.028,0.692-0.028h48c4.418-0.015,8.012,3.554,8.028,7.972c0.001,0.231-0.008,0.462-0.028,0.692l-16,192 C271.654,292.845,268.172,296.038,264,296.024z M255.36,280.024h1.28l14.664-176h-30.608L255.36,280.024z"/></g></svg>