<svg id="Layer_1" data-name="Layer 1" xmlns="http://www.w3.org/2000/svg" viewBox="0 0 384 384"><defs><style>.cls-1{fill:#fff;}.cls-2{fill:#112845;}.cls-3{fill:#2bac52;}.cls-4{fill:#f9ba17;}.cls-5{fill:#5b86c5;}.cls-6{fill:#ea453c;}</style></defs><title>Launchpad</title><path class="cls-1" d="M498.75,467.25v121.5h-384V467.25q2.57-.15,5.07-.15t4.83.15c17.51,1.08,32.65,8.06,45,22a60,60,0,0,1,10.27,16.3,62.66,62.66,0,0,1,3.7,11.86c.52,2.47,1.37,2.63,3.44,2.2,18.76-3.86,34.72,1.44,48.18,14.84.8.79,1.24,2.74,3.14,1.07,12.39-10.94,26.71-13.77,42.85-9.79,0-6.16.09-12.14,0-18.11a3.24,3.24,0,0,1,.44-2.07h50.13c1.95,1.71.45,5.78.56,8.8.15,3.72,0,7.46,0,11.39,13.8-3.53,26.51-1.87,38.17,6,2,1.38,4,4.2,5.89,4.06s3.56-3.15,5.46-4.75c12.92-10.86,27.64-15,44.28-11.55,2.44.51,3.26.2,3.89-2.5a67.74,67.74,0,0,1,3.74-11.49c9.74-22.7,31.14-37.42,56.72-38.34.76,0,1.52,0,2.29,0C494.75,467.19,496.75,467.23,498.75,467.25Z" transform="translate(-114.75 -204.75)"/><path class="cls-1" d="M119.82,467.1q-2.5,0-5.07.15v-.15Z" transform="translate(-114.75 -204.75)"/><path class="cls-2" d="M309,204.75c22,15.73,39.49,35.38,51.27,59.83,17.64,36.62,20.93,74.54,9.5,113.6-.87,3-.35,4.57,1.93,6.6,34.57,30.66,36.88,84.2,5.18,117.23-2.17,2.26-4.41,4.25-7.79,3.3-3.53-1-4.53-3.84-5-7.16-1.31-9.77-2.8-19.52-4.12-29.29-.86-6.39-2.76-8.16-9.23-8.17-4.75,0-9.5.06-14.25,0-2,0-2.86.09-2.29,2.6,1.61,7,2.9,14.17,4.21,21.28.9,4.9-1.68,8.16-6.6,8.18q-25.12.1-50.24,0c-4.89,0-7.45-3.32-6.53-8.23,1.46-7.83,3-15.63,4.63-23.77-6.71,0-13.18-.17-19.64.06-4,.15-5.81,2.63-6.52,7.75-1.41,10.14-3,20.25-4.31,30.4-.4,3-1.59,5.28-4.51,6.27-3.16,1.07-5.46-.47-7.6-2.68-32.18-33.15-30.1-87.16,4.72-117.71,2.58-2.26,2.63-4.11,1.77-7-19.17-63.3,5.15-133.7,59.26-171.74.58-.41,1.1-.89,1.65-1.34Z" transform="translate(-114.75 -204.75)"/><path class="cls-2" d="M498.75,438.66a3,3,0,0,1-3.1,3c-2.31-.05-4.62-.1-6.92,0-2,.06-2.76-.34-2.82-2.58-.26-10.33-.35-10.33,9.89-10.27h0a3,3,0,0,1,2.92,3Z" transform="translate(-114.75 -204.75)"/><path class="cls-2" d="M114.75,444.56a2.83,2.83,0,0,1,2.81-2.83c2.65,0,5.3,0,7.94-.15,1.69-.07,2.24.58,2,2.14a3.33,3.33,0,0,0,0,.37c-.09,3.32,1,7.53-.62,9.69s-6,.43-9.18.63h0a2.79,2.79,0,0,1-2.94-2.8Z" transform="translate(-114.75 -204.75)"/><path class="cls-2" d="M351.75,578.75c0-3.59,0-7.18-.17-10.76-.07-1.69.58-2.24,2.14-2a3.34,3.34,0,0,0,.37,0c3.32.09,7.53-1,9.69.62s.43,6,.63,9.18c.06,1,.06,2,.09,3Z" transform="translate(-114.75 -204.75)"/><path class="cls-2" d="M198,550.6c0,6.09,0,6.09-5.94,6.09-6.85,0-6.85,0-6.85-7,0-5.77,0-5.77,5.94-5.77C198,543.88,198,543.88,198,550.6Z" transform="translate(-114.75 -204.75)"/><path class="cls-2" d="M434.82,480.28c0,6.06,0,6.06-6.06,6.06-6.78,0-6.78,0-6.78-6.77,0-6.09,0-6.09,6-6.09C434.82,473.48,434.82,473.48,434.82,480.28Z" transform="translate(-114.75 -204.75)"/><path class="cls-3" d="M306.72,275.19c13.62,0,27.23.08,40.85-.07,2.64,0,3.89.75,4.9,3.24,13.83,34.16,14.45,68.62,2.94,103.51-6.86,20.8-13.48,41.69-20.13,62.56-.75,2.37-1.6,3.57-4.51,3.53-16.11-.19-32.23-.09-48.34-.1-1.55,0-3,.35-3.7-2-8-25.41-16.86-50.57-24-76.21-8.59-30.91-5.8-61.51,6.28-91.27,1-2.44,2.15-3.34,4.86-3.31C279.48,275.28,293.1,275.19,306.72,275.19Z" transform="translate(-114.75 -204.75)"/><path class="cls-4" d="M269.11,262.23A138.71,138.71,0,0,1,291,233.11a144.88,144.88,0,0,1,13.89-12.51c1.19-1,2-1.43,3.5-.25a141.61,141.61,0,0,1,35.69,41.36c0,.08,0,.23-.12.52Z" transform="translate(-114.75 -204.75)"/><path class="cls-5" d="M238.48,483.55c-18.65-28-13.52-66.49,10.23-87.7,1.11.49,1,1.63,1.27,2.53,5,15.5,9.9,31,15,46.49.91,2.75.21,3-2.3,3.06-13.36.11-20.43,6.61-22,19.85C240.13,472.84,239.3,477.86,238.48,483.55Z" transform="translate(-114.75 -204.75)"/><path class="cls-5" d="M364.73,395.76c25.72,23.1,27.69,63.21,10.26,87.43-.93-6.3-1.68-12.32-2.73-18.28-1.92-10.84-9.29-16.93-20.31-17-4.41,0-4.42,0-3.13-4q7.44-23.09,14.88-46.17C363.93,397,364,396.2,364.73,395.76Z" transform="translate(-114.75 -204.75)"/><path class="cls-6" d="M324.51,479.83H289c1.17-5.8,2.41-11.39,3.38-17,.32-1.85,1.17-2.14,2.74-2.13q11.62.07,23.23,0c1.56,0,2.45.23,2.77,2.1C322.09,468.41,323.33,474,324.51,479.83Z" transform="translate(-114.75 -204.75)"/><path class="cls-2" d="M486,505.55c0,6.46,0,6.46-6.39,6.46s-6.4,0-6.4-6.45,0-6.39,6.39-6.39S486,499.17,486,505.55Z" transform="translate(-114.75 -204.75)"/><path class="cls-2" d="M306.27,294.39c20.67-.46,38.33,16.41,38.77,37,.47,21.75-16.19,39.35-37.62,39.74-20.73.38-38.48-16.44-39-36.91C267.94,312.23,284.4,294.87,306.27,294.39Z" transform="translate(-114.75 -204.75)"/><path class="cls-2" d="M306.66,390.29c6.54,0,6.54,0,6.54,6.38,0,6.54,0,6.54-6.38,6.54-6.54,0-6.54,0-6.54-6.38C300.29,390.29,300.29,390.29,306.66,390.29Z" transform="translate(-114.75 -204.75)"/><path class="cls-2" d="M274.67,396.92c0-6.62,0-6.62,6.63-6.62,6.22,0,6.22,0,6.22,6.28,0,6.62,0,6.62-6.62,6.62C274.67,403.2,274.67,403.2,274.67,396.92Z" transform="translate(-114.75 -204.75)"/><path class="cls-2" d="M338.83,396.89c0,6.31,0,6.31-6.2,6.31-6.66,0-6.66,0-6.66-6.59,0-6.31,0-6.31,6.19-6.31C338.83,390.3,338.83,390.3,338.83,396.89Z" transform="translate(-114.75 -204.75)"/><path class="cls-6" d="M332.28,332.9a25.53,25.53,0,1,1-25.57-25.67A25.64,25.64,0,0,1,332.28,332.9Z" transform="translate(-114.75 -204.75)"/><path class="cls-2" d="M294.42,508.93c0,1.89-.48,4.1-.47,6,.07,12.74,0,25.49.1,38.23,0,2.7-.78,3.53-3.36,3.22-3.06-.37-7.15,1.34-9-.69-1.51-1.72-.46-5.7-.55-8.68v-.38c0-8-.6-8.68-8.82-9.56-18.52-2-33.43,10-35.8,29.16-.34,2.73-1,3.72-3.73,3.35a20,20,0,0,0-5.24,0c-3.58.51-4.49-.88-3.93-4.31.88-5.31,1.84-10.59,4.34-15.39,1.06-2.05.6-3.33-.75-5a38.24,38.24,0,0,0-60.12,1.9c-1.52,2.08-1.48,3.39,0,5.5,7.62,10.92,11.74,23,11.36,36.46H165.75a4.64,4.64,0,0,1-1-3.13c-2-25.88-21-44.86-46.9-46.9a4.64,4.64,0,0,1-3.13-1V525c2.8-1.74,5.83-1,8.74-.63a61.86,61.86,0,0,1,29.78,12.3c2.34,1.8,3.53,1.39,5-.73a34,34,0,0,1,9.35-8.54c2.64-1.73,3.09-3.74,2.51-6.68a50.2,50.2,0,0,0-40-38.94,56.66,56.66,0,0,0-10.8-.83c-1.59,0-3.29.29-4.64-1V467.25a83.83,83.83,0,0,1,9.9,0c17.51,1.08,32.65,8.06,45,22a60.86,60.86,0,0,1,14,28.16c.52,2.47,1.37,2.63,3.44,2.2,18.76-3.86,34.72,1.44,48.18,14.84.8.79,1.24,2.74,3.14,1.07,12.39-10.94,26.71-13.77,42.85-9.79,0-6.16.09-12.14,0-18.11,0-2.16.65-2.87,2.76-2.69,3.21.27,7.37-1.31,9.41.59A4.4,4.4,0,0,1,294.42,508.93Z" transform="translate(-114.75 -204.75)"/><path class="cls-2" d="M443.09,522.21c-.48,2.15.46,3.56,2.17,4.73a41.56,41.56,0,0,1,10.43,9.58c1.4,1.93,2.5,1.68,4.22.34A62.34,62.34,0,0,1,490,524.37c2.91-.41,5.94-1.11,8.74.63v12.75a4.64,4.64,0,0,1-3.13,1c-25.88,2-44.86,21-46.9,46.9a4.64,4.64,0,0,1-1,3.13H435c-.39-13.45,3.75-25.53,11.38-36.44,1.48-2.12,1.54-3.42,0-5.5a38.3,38.3,0,0,0-59.91-2.25c-1.56,1.82-2.06,3.3-.87,5.6,2.62,5,3.61,10.57,4.29,16.17.28,2.29-.16,3.45-2.85,3.23-3-.26-6.45.84-8.87-.35s-1.26-5.13-2-7.8C371.47,543,353,532.55,335.32,538.34c-2.23.73-3.23,1.65-3.07,4.11.23,3.61-.07,7.25.1,10.87.11,2.22-.45,3-2.85,3-8.85.08-9.85.17-10-6.71,0-.87,0-1.86,0-3q0-4.82,0-9.65c0-4.83,0-9.65,0-14.48s0-9.65-.07-14.48a9.13,9.13,0,0,1,.07-1.24c.21-1.5,1-2.07,3-1.89,3.09.27,7.09-.93,9.06.6,2.12,1.66.56,5.83.67,8.9.15,3.72,0,7.46,0,11.39,13.8-3.53,26.51-1.87,38.17,6,2,1.38,4,4.2,5.89,4.06s3.56-3.15,5.46-4.75c12.92-10.86,27.64-15,44.28-11.55,2.44.51,3.26.2,3.89-2.5,6.73-29.12,30.79-48.76,60.46-49.83.76,0,1.52,0,2.29,0,2,0,4,0,6,0V480c-1.73,1.46-3.82.94-5.76,1-23.22.07-42.22,14.26-48.83,36.51C443.7,519,443.44,520.62,443.09,522.21Z" transform="translate(-114.75 -204.75)"/></svg>