<svg id="Layer_3" enable-background="new 0 0 64 64" height="512" viewBox="0 0 64 64" width="512" xmlns="http://www.w3.org/2000/svg"><path d="m59.333 28-2.133-1.6c-1.203-.902-2.694-1.4-4.2-1.4h-2v-3c0-1.654-1.346-3-3-3h-3v-13c0-2.757-2.243-5-5-5h-34c-2.757 0-5 2.243-5 5v52c0 2.757 2.243 5 5 5h34c2.757 0 5-2.243 5-5v-11h7c1.506 0 2.997-.498 4.199-1.4l2.134-1.6h4.667v-16zm-11.333-7c.552 0 1 .449 1 1v1h-34v-1c0-.551.448-1 1-1zm-32 24h21.184c.302.847.969 1.514 1.816 1.816v2.184h-32v-34h32v4h-23c-1.654 0-3 1.346-3 3v20c0 1.654 1.346 3 3 3zm21.184-2h-21.184c-.552 0-1-.449-1-1v-13h34v12h-9c-1.302 0-2.402.839-2.816 2zm-22.184-16v-2h34v2zm-12-21c0-1.654 1.346-3 3-3h34c1.654 0 3 1.346 3 3v3h-40zm40 52c0 1.654-1.346 3-3 3h-34c-1.654 0-3-1.346-3-3v-3h40zm0-5h-40v-42h40v8h-2v-6h-36v38h36v-4h2zm18-11h-3.333l-2.668 2c-.858.645-1.924 1-2.999 1h-12c-.552 0-1-.449-1-1s.448-1 1-1h9.333c.646 0 1.285-.213 1.8-.6l3.467-2.6-1.2-1.6-2.4 1.8v-13h2c1.075 0 2.141.355 3 1l2.667 2h2.333z"/><path d="m25 34c-.731 0-1.407.211-1.997.555-.608-.357-1.296-.555-2.003-.555-2.206 0-4 1.794-4 4s1.794 4 4 4c.707 0 1.395-.198 2.003-.555.59.344 1.266.555 1.997.555 2.206 0 4-1.794 4-4s-1.794-4-4-4zm-3.486 5.921c-.168.047-.339.079-.514.079-1.103 0-2-.897-2-2s.897-2 2-2c.175 0 .346.032.514.079-.318.572-.514 1.221-.514 1.921s.196 1.349.514 1.921zm3.486.079c-1.103 0-2-.897-2-2s.897-2 2-2 2 .897 2 2-.897 2-2 2z"/><path d="m45 37h2v2h-2z"/><path d="m41 37h2v2h-2z"/><path d="m37 37h2v2h-2z"/><path d="m35 33h12v2h-12z"/><path d="m54 13h7v-6h-7v-3.081l-7.601 6.081 7.601 6.081zm-2-1.081-2.399-1.919 2.399-1.919v.919h7v2h-7z"/><path d="m54 51h-7v6h7v3.081l7.601-6.081-7.601-6.081zm2 1.081 2.399 1.919-2.399 1.919v-.919h-7v-2h7z"/><path d="m9 45h2v2h-2z"/><path d="m9 41h2v2h-2z"/><path d="m9 37h2v2h-2z"/><path d="m18 5h6v2h-6z"/><path d="m26 5h2v2h-2z"/><path d="m19 57h8v2h-8z"/></svg>