<svg xmlns="http://www.w3.org/2000/svg" id="Layer_1" width="512" height="512" data-name="Layer 1" viewBox="0 0 512 512"><title>Network Affiliate marketing</title><path d="M403.25,23.09a92.758,92.758,0,0,1,50.59,170.5V165.3a30.673,30.673,0,0,0-28.78-30.61,7.268,7.268,0,0,0-.86.98,26.414,26.414,0,0,1-41.66-1.03,30.67,30.67,0,0,0-29.88,30.66v28.29a92.758,92.758,0,0,1,50.59-170.5ZM430.5,97.98V82.73a26.443,26.443,0,0,0-26.44-26.44h-1.62A26.443,26.443,0,0,0,376,82.73V97.98a26.443,26.443,0,0,0,26.44,26.44h1.62A26.443,26.443,0,0,0,430.5,97.98Z" style="fill:#e48e66"/><path d="M310.51,397.07c-.01-.3-.01-.61-.01-.91a92.75,92.75,0,1,1,143.34,77.75v-28.3a30.657,30.657,0,0,0-28.78-30.6,6.689,6.689,0,0,0-.86.97,26.405,26.405,0,0,1-41.66-1.02,30.661,30.661,0,0,0-29.88,30.65v28.3A92.63,92.63,0,0,1,310.51,397.07ZM430.5,378.29V363.05a26.443,26.443,0,0,0-26.44-26.44h-1.62A26.443,26.443,0,0,0,376,363.05v15.24a26.445,26.445,0,0,0,26.44,26.45h1.62A26.445,26.445,0,0,0,430.5,378.29Z" style="fill:#e48e66"/><path d="M453.84,445.61v28.3a92.812,92.812,0,0,1-101.18,0v-28.3a30.661,30.661,0,0,1,29.88-30.65,26.405,26.405,0,0,0,41.66,1.02,6.689,6.689,0,0,1,.86-.97A30.657,30.657,0,0,1,453.84,445.61Z" style="fill:#f8ec7d"/><path d="M403.25,208.59a92.3,92.3,0,0,1-50.59-15V165.3a30.67,30.67,0,0,1,29.88-30.66,26.414,26.414,0,0,0,41.66,1.03,7.268,7.268,0,0,1,.86-.98,30.673,30.673,0,0,1,28.78,30.61v28.29A92.3,92.3,0,0,1,403.25,208.59Z" style="fill:#f8ec7d"/><path d="M430.5,363.05v15.24a26.445,26.445,0,0,1-26.44,26.45h-1.62A26.445,26.445,0,0,1,376,378.29V363.05a26.443,26.443,0,0,1,26.44-26.44h1.62A26.443,26.443,0,0,1,430.5,363.05Z" style="fill:#f8ec7d"/><rect width="54.5" height="68.13" x="376" y="56.29" rx="26.44" style="fill:#f8ec7d"/><path d="M176.29,319.57a92.594,92.594,0,0,1-16.95,14.18v-28.3a30.663,30.663,0,0,0-28.77-30.6,7.09,7.09,0,0,0-.87.97,26.4,26.4,0,0,1-41.65-1.02,30.663,30.663,0,0,0-29.89,30.65v28.3a92.757,92.757,0,1,1,118.13-14.18ZM136,238.13V222.89a26.443,26.443,0,0,0-26.44-26.44h-1.62A26.443,26.443,0,0,0,81.5,222.89v15.24a26.445,26.445,0,0,0,26.44,26.45h1.62A26.445,26.445,0,0,0,136,238.13Z" style="fill:#f8ec7d"/><path d="M159.34,305.45v28.3a92.812,92.812,0,0,1-101.18,0v-28.3A30.663,30.663,0,0,1,88.05,274.8a26.4,26.4,0,0,0,41.65,1.02,7.09,7.09,0,0,1,.87-.97A30.663,30.663,0,0,1,159.34,305.45Z" style="fill:#e48e66"/><path d="M136,222.89v15.24a26.445,26.445,0,0,1-26.44,26.45h-1.62A26.445,26.445,0,0,1,81.5,238.13V222.89a26.443,26.443,0,0,1,26.44-26.44h1.62A26.443,26.443,0,0,1,136,222.89Z" style="fill:#e48e66"/><path d="M402.44,130.42h1.62A32.477,32.477,0,0,0,436.5,97.98V82.73a32.477,32.477,0,0,0-32.44-32.44h-1.62A32.477,32.477,0,0,0,370,82.73V97.98A32.477,32.477,0,0,0,402.44,130.42ZM382,82.73a20.464,20.464,0,0,1,20.44-20.44h1.62A20.464,20.464,0,0,1,424.5,82.73V97.98a20.463,20.463,0,0,1-20.44,20.44h-1.62A20.463,20.463,0,0,1,382,97.98Z" style="fill:#63316d"/><path d="M457.117,198.616a98.753,98.753,0,1,0-152.541-86.465L172.459,180.558a98.816,98.816,0,1,0,4.833,146.521l127.315,73.51A98.746,98.746,0,1,0,409.25,297.6V214.4A98.216,98.216,0,0,0,457.117,198.616Zm-152.181,188.3L185.58,318.006A98.689,98.689,0,0,0,181.6,189.341l123.373-63.88A98.689,98.689,0,0,0,397.25,214.4v83.2A98.9,98.9,0,0,0,304.936,386.919Zm142.9-196.652a86.835,86.835,0,0,1-89.18,0V165.3A24.51,24.51,0,0,1,379.9,140.862a32.422,32.422,0,0,0,47.6.149A24.7,24.7,0,0,1,447.84,165.3ZM403.25,29.09a86.751,86.751,0,0,1,56.59,152.5V165.3a36.711,36.711,0,0,0-34.415-36.6c-.122-.007-.243-.011-.365-.011-2.93,0-4.429,1.853-5.5,3.173a20.413,20.413,0,0,1-32.2-.789,5.987,5.987,0,0,0-4.978-2.432A36.457,36.457,0,0,0,346.66,165.3v16.3A86.754,86.754,0,0,1,403.25,29.09ZM64.16,330.427V305.45a24.839,24.839,0,0,1,21.251-24.423,32.412,32.412,0,0,0,47.587.14A24.687,24.687,0,0,1,153.34,305.45v24.978a86.838,86.838,0,0,1-89.18,0Zm101.18-8.681v-16.3a36.689,36.689,0,0,0-34.408-36.59c-.12-.006-.242-.01-.362-.01-2.855,0-4.3,1.727-5.511,3.168a20.4,20.4,0,0,1-32.183-.782A6.008,6.008,0,0,0,87.9,268.8,36.884,36.884,0,0,0,52.16,305.45v16.3a86.8,86.8,0,1,1,113.18-.006ZM358.66,470.588V445.61A24.833,24.833,0,0,1,379.9,421.188a32.414,32.414,0,0,0,47.587.14A24.689,24.689,0,0,1,447.84,445.61v24.978a86.841,86.841,0,0,1-89.18,0ZM490,396.16a86.48,86.48,0,0,1-30.16,65.753v-16.3a36.693,36.693,0,0,0-34.418-36.589c-.121-.007-.241-.011-.362-.011-2.906,0-4.406,1.831-5.5,3.164a20.407,20.407,0,0,1-32.2-.782,6.012,6.012,0,0,0-4.971-2.43A36.879,36.879,0,0,0,346.66,445.61v16.3a86.512,86.512,0,0,1-30.15-64.9l0-.139c-.008-.236-.007-.48-.007-.716a86.75,86.75,0,0,1,173.5,0Z" style="fill:#63316d"/><path d="M370,363.05v15.24a32.481,32.481,0,0,0,32.44,32.45h1.62a32.481,32.481,0,0,0,32.44-32.45V363.05a32.477,32.477,0,0,0-32.44-32.44h-1.62A32.477,32.477,0,0,0,370,363.05Zm54.5,0v15.24a20.469,20.469,0,0,1-20.44,20.45h-1.62A20.469,20.469,0,0,1,382,378.29V363.05a20.463,20.463,0,0,1,20.44-20.44h1.62A20.463,20.463,0,0,1,424.5,363.05Z" style="fill:#63316d"/><path d="M109.56,190.45h-1.62A32.477,32.477,0,0,0,75.5,222.89v15.24a32.482,32.482,0,0,0,32.44,32.45h1.62A32.482,32.482,0,0,0,142,238.13V222.89A32.477,32.477,0,0,0,109.56,190.45ZM130,238.13a20.468,20.468,0,0,1-20.44,20.45h-1.62A20.468,20.468,0,0,1,87.5,238.13V222.89a20.463,20.463,0,0,1,20.44-20.44h1.62A20.463,20.463,0,0,1,130,222.89Z" style="fill:#63316d"/></svg>