<?xml version="1.0" encoding="utf-8"?>
<!-- Generator: Adobe Illustrator 21.0.0, SVG Export Plug-In . SVG Version: 6.00 Build 0)  -->
<svg version="1.1" id="FilledOutline" xmlns="http://www.w3.org/2000/svg" xmlns:xlink="http://www.w3.org/1999/xlink" x="0px"
	 y="0px" viewBox="0 0 512 512" style="enable-background:new 0 0 512 512;" xml:space="preserve">
<style type="text/css">
	.st0{fill:#2BAC52;}
	.st1{fill:#5B86C5;}
	.st2{fill:#F9BA17;}
	.st3{fill:#EA453C;}
	.st4{fill:#D2E288;}
	.st5{fill:#112845;}
</style>
<path class="st0" d="M216,80h80v120h-80V80z"/>
<path class="st1" d="M64,192h384v64H64V192z"/>
<path class="st2" d="M176,192h160v64H176V192z"/>
<path class="st3" d="M208,224h96v32h-96V224z"/>
<path class="st1" d="M280,336l-8-112h-32l-8,112v16h48V336z"/>
<path class="st0" d="M316,455.8L299.7,469c-5.7,4.6-14.1,3.7-18.7-2c-1.4-1.8-2.4-3.9-2.8-6.2l-3.5-21.1
	c-1.7-10.3-11.5-17.2-21.8-15.5c-8,1.3-14.2,7.6-15.5,15.5l-3.5,21.1c-1.2,7.3-8.1,12.2-15.4,10.9c-2.3-0.4-4.4-1.3-6.2-2.8
	L196,455.8L85.1,365.1L64,344v-32c0-8.8,7.2-16,16-16h96l56,40h48l56-40h96c8.8,0,16,7.2,16,16v32l-21.1,21.1L316,455.8z"/>
<path class="st1" d="M216,64V40c0-8.8,7.2-16,16-16h48c8.8,0,16,7.2,16,16v24H216z"/>
<g>
	<path class="st3" d="M208,56h96v32h-96V56z"/>
	<circle class="st3" cx="376" cy="416" r="72"/>
	<circle class="st3" cx="136" cy="416" r="72"/>
</g>
<circle class="st1" cx="136" cy="416" r="40"/>
<circle class="st2" cx="136" cy="416" r="21"/>
<ellipse transform="matrix(0.7071 -0.7071 0.7071 0.7071 -240.6194 223.6361)" class="st4" cx="149.6" cy="402.3" rx="7.8" ry="11.3"/>
<circle class="st1" cx="376" cy="416" r="40"/>
<circle class="st2" cx="376" cy="416" r="21"/>
<ellipse transform="matrix(0.7071 -0.7071 0.7071 0.7071 -170.3503 393.3307)" class="st4" cx="389.6" cy="402.3" rx="7.8" ry="11.3"/>
<path class="st5" d="M432,264c13.2,0,24-10.8,24-24v-32c0-13.2-10.8-24-24-24H304V96c4.4,0,8-3.6,8-8V56c0-4.4-3.6-8-8-8v-8
	c0-13.2-10.8-24-24-24h-48c-13.2,0-24,10.8-24,24v8c-4.4,0-8,3.6-8,8v32c0,4.4,3.6,8,8,8v88H80c-13.2,0-24,10.8-24,24v32
	c0,13.2,10.8,24,24,24h149.1l-4.1,57.2l-44.4-31.7c-1.4-1-3-1.5-4.6-1.5H80c-13.2,0-24,10.8-24,24v32c0,2.1,0.8,4.2,2.3,5.7
	L74,365.4c-28,34.1-23,84.5,11.1,112.5c34,27.9,84.1,23.1,112.2-10.7l9.9,8.1c3.8,3,8.5,4.7,13.4,4.7c10.4,0.1,19.3-7.5,21-17.8
	l3.5-21.1c1-5.9,6.6-9.9,12.6-8.9c4.6,0.8,8.2,4.4,8.9,8.9l3.5,21.1c1.7,10.3,10.6,17.9,21,17.8c4.9,0,9.6-1.7,13.4-4.8l9.9-8
	c28.2,34,78.6,38.7,112.6,10.6c33.9-28.1,38.7-78.4,10.7-112.4l15.7-15.7c1.5-1.5,2.3-3.5,2.3-5.7v-32c0-13.2-10.8-24-24-24h-96
	c-1.7,0-3.3,0.5-4.6,1.5l-44.4,31.7l-4.1-57.2L432,264z M296,248h-14.3l-1.1-16H296V248z M265.6,248h-19.4l1.1-16h17.1L265.6,248z
	 M440,208v32c0,4.4-3.6,8-8,8h-88v-48h88C436.4,200,439.9,203.6,440,208z M216,80V64h80v16H216z M224,40c0-4.4,3.6-8,8-8h48
	c4.4,0,8,3.6,8,8v8h-64V40z M288,96v56h-64V96H288z M224,168h64v16h-64V168z M72,240v-32c0-4.4,3.6-8,8-8h88v48H80
	C75.5,248,72,244.4,72,240z M200,224v24h-16v-48h144v48h-16v-24c0-4.4-3.6-8-8-8h-96C203.5,216,200,219.6,200,224z M216,248v-16
	h15.4l-1.1,16H216z M136,480c-35.3,0-64-28.7-64-64s28.7-64,64-64s64,28.7,64,64C199.9,451.3,171.3,480,136,480z M376,480
	c-35.3,0-64-28.7-64-64s28.7-64,64-64s64,28.7,64,64C439.9,451.3,411.3,480,376,480z M338.5,304h5.4v16h16v-16h16v16h16v-16h16v16
	h16v-16h8c4.4,0,8,3.6,8,8v28.7l-13.4,13.4c-34.2-28-84.6-22.9-112.5,11.3c-20.5,25.1-23.9,60.1-8.5,88.6l-10.9,8.9
	c-1,0.8-2.2,1.2-3.4,1.2c-2.6,0-4.8-1.9-5.2-4.4l-3.5-21.1c-1.7-10-8.8-18.2-18.5-21.2V392h-16v25.2c-9.7,3-16.9,11.2-18.5,21.2
	l-3.5,21.2c-0.4,2.5-2.6,4.4-5.2,4.4c-1.2,0-2.4-0.4-3.4-1.2l-10.9-8.9c21-38.9,6.5-87.4-32.4-108.3c-28.5-15.4-63.5-12-88.6,8.5
	L72,340.7V312c0-4.4,3.6-8,8-8h8v16h16v-16h16v16h16v-16h16v16h16v-16h5.4l53.9,38.5c1.4,1,3,1.5,4.6,1.5h48c1.7,0,3.3-0.5,4.6-1.5
	L338.5,304z M271.4,328h-30.8l4.6-64h21.7L271.4,328z"/>
<path class="st5" d="M136,368c-26.5,0-48,21.5-48,48s21.5,48,48,48s48-21.5,48-48C184,389.5,162.5,368,136,368z M136,448
	c-17.7,0-32-14.3-32-32s14.3-32,32-32s32,14.3,32,32C168,433.7,153.7,448,136,448z"/>
<path class="st5" d="M248,120h16v16h-16V120z"/>
<path class="st5" d="M376,368c-26.5,0-48,21.5-48,48s21.5,48,48,48s48-21.5,48-48C424,389.5,402.5,368,376,368z M376,448
	c-17.7,0-32-14.3-32-32s14.3-32,32-32s32,14.3,32,32C408,433.7,393.7,448,376,448z"/>
<path class="st5" d="M248,360h16v16h-16V360z"/>
</svg>
